<svg xmlns="http://www.w3.org/2000/svg" viewBox="0 0 24 24" fill="white"><path d="M12 2C6.48 2 2 6.48 2 12s4.48 10 10 10c.83 0 1.5-.67 1.5-1.5 0-.39-.15-.74-.39-1.01-.23-.26-.38-.61-.38-1 0-.83.67-1.5 1.5-1.5H16c3.31 0 6-2.69 6-6 0-4.97-4.48-9-10-9zM6.5 13c-.83 0-1.5-.67-1.5-1.5S5.67 10 6.5 10 8 10.67 8 11.5 7.33 13 6.5 13zm3-4C8.67 9 8 8.33 8 7.5S8.67 6 9.5 6 11 6.67 11 7.5 10.33 9 9.5 9zm5 0c-.83 0-1.5-.67-1.5-1.5S13.67 6 14.5 6 16 6.67 16 7.5 15.33 9 14.5 9zm3 4c-.83 0-1.5-.67-1.5-1.5S16.67 10 17.5 10 19 10.67 19 11.5 18.33 13 17.5 13z"/></svg>
