<svg xmlns="http://www.w3.org/2000/svg" viewBox="0 0 24 24" fill="white"><path d="M21 17c-1.5 0-2.5-.5-3.5-1s-2-1-3.5-1-2.5.5-3.5 1-2 1-3.5 1-2.5-.5-3.5-1-2-1-3.5-1v2c1.5 0 2.5.5 3.5 1s2 1 3.5 1 2.5-.5 3.5-1 2-1 3.5-1 2.5.5 3.5 1 2 1 3.5 1v-2zM21 9c-1.5 0-2.5-.5-3.5-1s-2-1-3.5-1-2.5.5-3.5 1-2 1-3.5 1S5 9.5 4 9s-2-1-3.5-1V6c1.5 0 2.5.5 3.5 1s2 1 3.5 1 2.5-.5 3.5-1 2-1 3.5-1 2.5.5 3.5 1 2 1 3.5 1v2zM21 13c-1.5 0-2.5-.5-3.5-1s-2-1-3.5-1-2.5.5-3.5 1-2 1-3.5 1-2.5-.5-3.5-1-2-1-3.5-1v2c1.5 0 2.5.5 3.5 1s2 1 3.5 1 2.5-.5 3.5-1 2-1 3.5-1 2.5.5 3.5 1 2 1 3.5 1v-2z"/></svg>
